<svg xmlns="http://www.w3.org/2000/svg" viewBox="0 0 32 32" width="32" height="32">
  <!-- Haus-Dach -->
  <path d="M16 4 L28 14 L24 14 L24 26 L8 26 L8 14 L4 14 Z" fill="#2196F3" stroke="#1976D2" stroke-width="1"/>
  
  <!-- Haus-Basis -->
  <rect x="8" y="14" width="16" height="12" fill="#42A5F5" stroke="#1976D2" stroke-width="1"/>
  
  <!-- Fenster -->
  <rect x="10" y="16" width="4" height="4" fill="#FFF" stroke="#1976D2" stroke-width="0.5"/>
  <rect x="18" y="16" width="4" height="4" fill="#FFF" stroke="#1976D2" stroke-width="0.5"/>
  
  <!-- Tür -->
  <rect x="14" y="20" width="4" height="6" fill="#FFF" stroke="#1976D2" stroke-width="0.5"/>
  <circle cx="17" cy="23" r="0.5" fill="#1976D2"/>
  
  <!-- Zahnrad (Automatisierung) -->
  <g transform="translate(24, 8)">
    <!-- Äußere Zähne -->
    <g fill="#FF9800" stroke="#F57C00" stroke-width="0.3">
      <rect x="-0.5" y="-4" width="1" height="1.5" transform="rotate(0)"/>
      <rect x="-0.5" y="-4" width="1" height="1.5" transform="rotate(45)"/>
      <rect x="-0.5" y="-4" width="1" height="1.5" transform="rotate(90)"/>
      <rect x="-0.5" y="-4" width="1" height="1.5" transform="rotate(135)"/>
      <rect x="-0.5" y="-4" width="1" height="1.5" transform="rotate(180)"/>
      <rect x="-0.5" y="-4" width="1" height="1.5" transform="rotate(225)"/>
      <rect x="-0.5" y="-4" width="1" height="1.5" transform="rotate(270)"/>
      <rect x="-0.5" y="-4" width="1" height="1.5" transform="rotate(315)"/>
    </g>
    
    <!-- Zahnrad-Körper -->
    <circle cx="0" cy="0" r="3" fill="#FFB74D" stroke="#F57C00" stroke-width="0.5"/>
    
    <!-- Inneres Loch -->
    <circle cx="0" cy="0" r="1.2" fill="#FFF" stroke="#F57C00" stroke-width="0.3"/>
  </g>
</svg>